# xmcd
#
# Track frame offsets: 
#        150
#        19403
#        41407
#        62129
#        77871
#        94020
#        110988
#        127546
#        144544
#        165147
#        185734
#        203586
#        220489
#
# Disc length: 3150 seconds
#
# Revision: 0
# Processed by: cddbd v1.5.2PL0 Copyright (c) Steve Scherf et al.
# Submitted via: ExactAudioCopy v0.95b4
#
DISCID=b30c4c0d
DTITLE=Chickenhunters - Dancin' On Ice
DYEAR=2006
DGENRE=Rock
TTITLE0=Dancin' On Ice
TTITLE1=Queen
TTITLE2=Don't Ask Me Questions
TTITLE3=Man On The Radio
TTITLE4=Sex and Drugs and Rock'n'Roll
TTITLE5=Goodbye My Love
TTITLE6=Next Train
TTITLE7=Another Town
TTITLE8=Nobody Loves Me
TTITLE9=Caught In A Hurricane
TTITLE10=Wino Song
TTITLE11=Stay With Me
TTITLE12=A New Life
EXTD=
EXTT0=
EXTT1=
EXTT2=
EXTT3=
EXTT4=
EXTT5=
EXTT6=
EXTT7=
EXTT8=
EXTT9=
EXTT10=
EXTT11=
EXTT12=
PLAYORDER=
